<?xml version="1.0" encoding="UTF-8" standalone="no"?>
<!-- Created with Inkscape (http://www.inkscape.org/) -->

<svg
   width="32.507217mm"
   height="32.817295mm"
   viewBox="0 0 32.507217 32.817295"
   version="1.1"
   id="svg1"
   xml:space="preserve"
   xmlns="http://www.w3.org/2000/svg"
   xmlns:svg="http://www.w3.org/2000/svg"><defs
     id="defs1" /><g
     id="layer1"
     transform="translate(-81.032517,-74.384745)"><path
       style="fill:#0a0a0a;stroke:none"
       d="m 91.060788,74.593862 c -11.15015,2.01035 -13.75753,17.75513 -3.96875,23.3356 2.553109,1.45549 5.559677,2.01834 8.466667,1.56075 1.35116,-0.21268 3.81152,-1.72613 5.027075,-1.04996 2.55142,1.41926 4.80985,4.666288 6.87917,6.722178 1.06467,1.05775 2.30288,2.42081 3.96855,1.94027 1.99003,-0.57411 2.66357,-2.89058 1.61587,-4.58591 -1.4731,-2.3837 -4.13979,-4.375948 -6.11359,-6.349998 -0.71381,-0.7139 -1.97922,-1.60637 -2.20527,-2.64583 -0.41909,-1.92718 1.53945,-4.88963 1.38784,-7.14375 -0.51459,-7.65089 -7.473465,-13.15075 -15.057562,-11.78335 m 1.058337,1.80574 c 10.812385,-1.40855 16.581915,13.36699 7.40833,19.47485 -1.51437,1.00828 -3.23052,1.57051 -5.02708,1.80329 -13.453278,1.74308 -15.847755,-19.52383 -2.38125,-21.27814 m -5.29167,4.68594 c 3.001878,-1.71 5.35078,-3.56608 8.99583,-2.44106 1.66678,0.51443 3.03963,2.11753 4.762495,2.17648 -1.638795,-3.48473 -7.020655,-4.15323 -10.318742,-2.99004 -1.475852,0.52052 -3.702264,1.43392 -3.439583,3.25462 z"
       id="path1" /></g></svg>
