<?xml version="1.0" encoding="UTF-8" standalone="no"?>
<!-- Generator: Adobe Illustrator 15.1.0, SVG Export Plug-In . SVG Version: 6.00 Build 0)  -->

<svg
   version="1.1"
   id="Layer_1"
   x="0px"
   y="0px"
   width="74.667"
   height="74.667"
   viewBox="0 0 74.667001 74.667001"
   enable-background="new 0 0 283.465 283.465"
   xml:space="preserve"
   xmlns="http://www.w3.org/2000/svg"
   xmlns:svg="http://www.w3.org/2000/svg"><defs
   id="defs85" />
<path
   fill="#08b89d"
   d="m 66.4,44.583003 c -0.019,-0.032 -0.032,-0.066 -0.051,-0.101 -2.409,-4.171 -2.655,-9.459 0.054,-14.281 -1.857,3.292 -5.38,5.518 -9.429,5.518 -4.837,0 -9.542,-0.998 -13.873,-2.828 -0.376,2.989 -0.376,6.016 0,9.004 4.332,-1.827 9.036,-2.826 13.872,-2.826 4.048,0 7.57,2.224 9.427,5.514"
   id="path2" />
<path
   fill="#00ab4e"
   d="m 56.985,14.070003 c -0.01,0 -0.021,-10e-4 -0.03,-10e-4 -3.732,0.01 -7.357,1.948 -9.357,5.413 -2.414,4.183 -3.91,8.75 -4.497,13.409 4.331,1.83 9.036,2.828 13.873,2.828 4.009,0 7.499,-2.183 9.37,-5.42 0.92,-1.592 1.455,-3.434 1.455,-5.405 0,-5.975 -4.84,-10.821 -10.814,-10.824"
   id="path4" />
<path
   fill="#0089cf"
   d="m 47.599,55.306003 c -2.415,-4.183 -3.911,-8.75 -4.497,-13.41 -2.774,1.172 -5.391,2.685 -7.789,4.507 3.747,2.834 6.97,6.394 9.386,10.578 2.025,3.508 1.858,7.674 -0.065,10.929 2.812,-4.758 7.434,-7.156 12.433,-7.195 -3.772,0.028 -7.449,-1.909 -9.468,-5.409"
   id="path6" />
<path
   fill="#36364a"
   d="m 25.947,56.982003 c -1.083,1.876 -1.533,3.942 -1.43,5.958 h 2.229 v -7.239 c -0.27,0.425 -0.547,0.844 -0.799,1.281"
   id="path8" />
<path
   fill="#36364a"
   d="m 44.698,56.981003 c -2.417,-4.187 -5.629,-7.764 -9.378,-10.599 l -0.116,0.105 c -1.731,1.325 -3.355,2.801 -4.828,4.432 l -0.97,1.132 -2.488,3.395 c -0.051,0.08 -0.109,0.154 -0.159,0.234 h 7.247 v 3.63 h 3.629 v 3.63 h -3.629 v -3.63 h -3.63 v 3.63 h -3.63 v 6.043 c 0.317,0.415 0.661,0.796 1.026,1.151 0.022,0.021 0.041,0.043 0.062,0.063 h 2.542 v -3.629 h 3.63 v 3.629 h -3.63 v 1.811 0.007 c 3.162,1.623 7.053,1.663 10.361,-0.246 5.176,-2.989 6.95,-9.609 3.961,-14.788"
   id="path10" />
<path
   fill="#778d31"
   d="m 27.553,4.8670035 c -1.024,1.057 -1.81,2.293 -2.325,3.629 h 5.148 v -3.629 z"
   id="path12" />
<path
   fill="#778d31"
   d="m 34.006,1.6500035 c -1.239,0.152 -2.463,0.538 -3.63,1.139 v 2.077 h 3.63 z"
   id="path14" />
<path
   fill="#778d31"
   d="m 44.903,7.3570035 v 1.139 h -3.63 v -3.63 h 1.821 c -1.501,-1.55 -3.406,-2.579 -5.45,-3.027 v 3.027 h -3.63 v 3.63 h -3.629 v 3.6299995 h 3.629 v 3.629 h -3.629 v -3.629 H 24.52 c -0.031,1.212 0.132,2.439 0.521,3.629 h 1.714 v 3.631 h 3.63 v 3.628 h -0.743 c 1.704,2.011 3.617,3.817 5.695,5.394 3.745,-2.835 6.953,-6.416 9.37,-10.601 1.928,-3.337 1.864,-7.271 0.196,-10.4499995 M 34.014,19.385003 h 3.629 v 3.629 h -3.629 z"
   id="path16" />
<path
   fill="#8dc63f"
   d="m 56.955,14.069003 c -4.917,-0.006 -9.5,-2.594 -12.061,-6.7719995 v 0.06 c 1.669,3.1789995 1.732,7.1119995 -0.195,10.4499995 -2.417,4.185 -5.629,7.761 -9.375,10.595 2.393,1.817 5.01,3.321 7.777,4.49 0.587,-4.66 2.083,-9.227 4.498,-13.409 1.999,-3.466 5.625,-5.404 9.356,-5.414"
   id="path18" />
<path
   fill="#00878a"
   d="m 67.799,49.894003 c 0,-5.979 -4.845,-10.826 -10.825,-10.826 -4.836,0 -9.541,0.999 -13.872,2.828 0.586,4.66 2.082,9.227 4.497,13.41 2.997,5.192 9.586,6.888 14.681,4.019 3.293,-1.857 5.519,-5.382 5.519,-9.431"
   id="path20" />
<path
   fill="#ed1a3b"
   d="m 35.313,46.402003 c -1.562,-1.182 -3.207,-2.25 -4.937,-3.163 v 1.554 h -3.629 v 3.631 h 3.629 v 2.495 c 1.505,-1.664 3.164,-3.169 4.937,-4.517"
   id="path22" />
<path
   fill="#ed1a3b"
   d="m 26.758,55.687003 c 0.051,-0.08 0.108,-0.154 0.16,-0.234 l 2.486,-3.395 c 0,-0.002 0,-0.005 0.001,-0.007 h -2.659 v 3.655 c 0.012,-0.006 0.023,-0.014 0.035,-0.02 h -0.023 z"
   id="path24" />
<path
   fill="#ed1a3b"
   d="m 24.518,62.940003 c -0.103,-2.016 0.346,-4.082 1.43,-5.958 0.252,-0.438 0.529,-0.856 0.799,-1.281 v -0.021 h -3.63 v 3.63 h -3.629 v 2.671 c 0.615,0.278 1.208,0.599 1.777,0.959 z"
   id="path26" />
<path
   fill="#ed1a3b"
   d="m 22.806,55.681003 h 0.311 v -0.504 c -0.024,0.043 -0.044,0.087 -0.07,0.131 -0.074,0.129 -0.162,0.247 -0.241,0.373"
   id="path28" />
<path
   fill="#ed1a3b"
   d="m 26.089,48.422003 c -0.396,1.229 -0.869,2.439 -1.401,3.63 h 2.058 v -3.63 z"
   id="path30" />
<path
   fill="#ed1c24"
   d="m 19.487,39.567003 c -1.198,-0.199 -2.407,-0.35 -3.629,-0.425 v 2.021 h 3.629 z"
   id="path32" />
<path
   fill="#ed1c24"
   d="m 23.117,48.422003 v -3.63 h -7.259 v -3.629 h -3.63 v 7.259 h 7.259 v 7.26 h 3.319 c 0.079,-0.126 0.166,-0.243 0.241,-0.373 0.026,-0.044 0.046,-0.088 0.07,-0.132 v -3.125 h 1.571 c 0.533,-1.19 1.005,-2.4 1.401,-3.63 z"
   id="path34" />
<rect
   x="12.229"
   y="52.05201"
   fill="#ed1c24"
   width="3.6289999"
   height="3.6289999"
   id="rect36" />
<rect
   x="15.858002"
   y="55.681007"
   fill="#ed1c24"
   width="3.6289999"
   height="3.6300001"
   id="rect38" />
<rect
   x="8.598999"
   y="55.681007"
   fill="#ed1c24"
   width="3.6300001"
   height="3.6300001"
   id="rect40" />
<rect
   x="4.9700012"
   y="48.422005"
   fill="#ed1c24"
   width="3.6289999"
   height="3.6300001"
   id="rect42" />
<path
   fill="#ed1c24"
   d="m 26.747,41.571003 c -1.187,-0.467 -2.395,-0.884 -3.629,-1.222 v 4.442 h 3.629 z"
   id="path44" />
<path
   fill="#cc7b16"
   d="m 26.747,30.273003 h -3.629 v 3.63 h -3.63 v 1.318 c 2.778,-0.46 5.473,-1.254 8.04,-2.332 -0.177,-1.416 -0.433,-2.824 -0.781,-4.216 z"
   id="path46" />
<rect
   x="4.9690018"
   y="19.384003"
   fill="#cc7b16"
   width="3.6289999"
   height="3.6300001"
   id="rect48" />
<rect
   x="4.9690018"
   y="26.644005"
   fill="#cc7b16"
   width="3.6289999"
   height="3.6289999"
   id="rect50" />
<rect
   x="8.598999"
   y="23.015007"
   fill="#cc7b16"
   width="3.6300001"
   height="3.6289999"
   id="rect52" />
<rect
   x="19.487999"
   y="26.644005"
   fill="#cc7b16"
   width="3.6300001"
   height="3.6289999"
   id="rect54" />
<rect
   x="12.229"
   y="19.384003"
   fill="#cc7b16"
   width="3.6289999"
   height="3.6300001"
   id="rect56" />
<rect
   x="12.229"
   y="30.273003"
   fill="#cc7b16"
   width="3.6289999"
   height="3.6300001"
   id="rect58" />
<path
   fill="#cc7b16"
   d="m 13.776,14.074003 c -0.039,0 -0.076,-0.007 -0.114,-0.007 -0.14,0 -0.281,0.023 -0.421,0.029 -0.168,0.008 -0.336,0.019 -0.502,0.035 -0.171,0.015 -0.341,0.012 -0.511,0.035 v 1.59 h 0.006 v 0.008 h 3.628 v -1.864 c -0.686,0.108 -1.382,0.168 -2.086,0.174"
   id="path60" />
<rect
   x="15.858002"
   y="23.015007"
   fill="#cc7b16"
   width="3.6289999"
   height="3.6289999"
   id="rect62" />
<path
   fill="#cc7b16"
   d="m 19.487,19.385003 v 3.63 h 3.629 l 0.001,3.629 h 3.056 c -0.774,-2.469 -1.805,-4.875 -3.126,-7.162 -0.91,-1.576 -2.168,-2.82 -3.609,-3.726 h -3.581 l 0.001,3.629 z"
   id="path64" />
<path
   fill="#cc7b16"
   d="m 8.599,34.455003 c 1.109,0.59 2.334,0.984 3.63,1.157 v -1.709 h -3.63 z"
   id="path66" />
<path
   fill="#fdb913"
   d="m 12.229,35.612003 c -1.296,-0.173 -2.521,-0.567 -3.63,-1.157 v 3.078 h 3.63 z"
   id="path68" />
<path
   fill="#fdb913"
   d="m 19.487,37.534003 h -3.629 v 1.609 c 1.222,0.076 2.431,0.226 3.629,0.425 z"
   id="path70" />
<path
   fill="#fdb913"
   d="m 19.487,37.534003 h 3.629 l 0.001,2.815 c 1.235,0.339 2.442,0.756 3.629,1.223 v -0.409 h 0.869 c 0.289,-2.751 0.257,-5.527 -0.087,-8.272 -2.567,1.078 -5.263,1.872 -8.041,2.332 z"
   id="path72" />
<path
   fill="#d3a809"
   d="m 20.818,12.126003 h 2.299 v -1.675 c -0.71,0.634 -1.48,1.196 -2.299,1.675"
   id="path74" />
<path
   fill="#d3a809"
   d="m 24.512,12.126003 h -1.395 v 3.628 h 1.916 c -0.39,-1.189 -0.553,-2.416 -0.521,-3.628"
   id="path76" />
<path
   fill="#d3a809"
   d="m 29.634,23.014003 h -2.887 v -3.628 h -3.63 v -3.631 l -3.679,10e-4 c 1.442,0.906 2.699,2.15 3.609,3.726 1.321,2.287 2.352,4.693 3.126,7.162 h 0.574 v 2.029 c 0.347,1.392 0.603,2.8 0.781,4.216 2.774,-1.165 5.387,-2.682 7.786,-4.495 -2.072,-1.573 -3.98,-3.374 -5.68,-5.38"
   id="path78" />
<rect
   x="-6"
   y="0"
   fill="none"
   width="74.667"
   height="74.667"
   id="rect80" />
</svg>
