<?xml version="1.0" encoding="UTF-8" standalone="no"?>
<!-- Created with Inkscape (http://www.inkscape.org/) -->

<svg
   width="81.957344mm"
   height="74.402222mm"
   viewBox="0 0 81.957344 74.402222"
   version="1.1"
   id="svg1"
   xml:space="preserve"
   xmlns="http://www.w3.org/2000/svg"
   xmlns:svg="http://www.w3.org/2000/svg"><defs
     id="defs1" /><g
     id="layer1"
     transform="translate(-55.281471,-194.0233)"><g
       id="g17"><path
         style="fill:#c5d8ef;fill-opacity:1;stroke:#000000;stroke-width:7.3;stroke-dasharray:none;stroke-opacity:1"
         d="m 77.236409,220.51245 43.043111,-15.28058 5.77857,45.9802 -59.606362,6.26416 z"
         id="path17" /><circle
         style="fill:#ffe940;fill-opacity:1;stroke:#000000;stroke-width:4.50184;stroke-dasharray:none;stroke-opacity:1"
         id="path8"
         cx="120.27952"
         cy="205.6716"
         r="8.9938154" /><circle
         style="fill:#ffe940;fill-opacity:1;stroke:#000000;stroke-width:4.50184;stroke-dasharray:none;stroke-opacity:1"
         id="path8-6"
         cx="125.99408"
         cy="250.68468"
         r="8.9938154" /><circle
         style="fill:#ffe940;fill-opacity:1;stroke:#000000;stroke-width:4.50184;stroke-dasharray:none;stroke-opacity:1"
         id="path8-9"
         cx="66.526207"
         cy="257.18079"
         r="8.9938154" /><circle
         style="fill:#ffe940;fill-opacity:1;stroke:#000000;stroke-width:4.50184;stroke-dasharray:none;stroke-opacity:1"
         id="path8-3"
         cx="77.183731"
         cy="220.18146"
         r="8.9938154" /><path
         style="fill:#ed3137;stroke:none;stroke-width:0.323177"
         d="m 72.800911,228.65371 v -10.51738 c 1.622339,0 3.162554,-0.17265 4.788403,0.0244 4.792771,0.58091 9.256979,3.09887 12.566192,6.55964 1.375261,1.43825 2.609739,3.02324 3.675622,4.7029 0.455397,0.71764 0.962909,2.06837 1.714688,2.47971 0.0515,-1.19612 0.422875,-2.38634 0.505389,-3.59131 0.156583,-2.28644 -0.135944,-4.69788 -0.646577,-6.92607 -1.367576,-5.96751 -5.329934,-11.90449 -10.889233,-14.68414 -3.571036,-1.78552 -7.764409,-2.41729 -11.714484,-2.41729 V 194.0233 c -0.57533,0.26829 -1.00908,0.83807 -1.453623,1.28261 l -2.650715,2.65072 c -3.064355,3.06436 -6.105379,6.1539 -9.149599,9.23478 -0.991488,1.00342 -1.99495,1.99527 -2.992426,2.99275 -0.265182,0.26519 -0.99745,0.77212 -0.94731,1.1971 0.05404,0.45782 0.81062,0.97491 1.118328,1.28261 l 3.163762,3.16377 c 2.54265,2.54264 5.156698,5.03134 7.646425,7.62465 1.667305,1.73666 3.284983,3.81202 5.265158,5.20142 z"
         id="path7" /></g></g></svg>
